<svg width="153" height="76" viewBox="0 0 153 76" fill="none" xmlns="http://www.w3.org/2000/svg">
<rect y="6.2041" width="139.091" height="63.5918" rx="7" fill="white"/>
<g clip-path="url(#clip0_4_189)">
<path d="M70.9573 18.6208C71.7092 18.6505 72.3233 18.8677 72.802 19.271C73.2833 19.6755 73.5866 20.1942 73.7144 20.8295C73.8447 21.4623 73.7495 22.1584 73.4287 22.9191C73.158 23.5842 72.7243 24.124 72.1303 24.5372C71.5388 24.9479 70.8582 25.2159 70.09 25.3412C69.3243 25.4678 68.5372 25.4393 67.7289 25.2569C66.923 25.0757 66.1611 24.7158 65.4429 24.1798C64.7537 25.6825 64.3927 27.1616 64.3601 28.6171C64.3301 30.4238 64.6308 31.7714 65.2625 32.6573C65.8941 33.5445 66.7764 33.9714 67.9093 33.9379C68.5172 33.9218 69.1576 33.7915 69.8293 33.5458C70.5011 33.3013 71.1528 32.8708 71.7844 32.2553C72.416 31.6373 72.9637 30.7812 73.4287 29.6892C73.475 29.5937 73.5665 29.5651 73.7044 29.6048C73.841 29.6445 73.9651 29.7165 74.0753 29.8182C74.1881 29.9212 74.2207 30.0292 74.1706 30.1409C73.3886 31.9612 72.4524 33.2827 71.3633 34.1066C70.2767 34.9281 68.9345 35.3537 67.3379 35.3872C66.1673 35.4033 65.1986 35.1241 64.4303 34.5484C63.6646 33.9702 63.1019 33.1686 62.7409 32.1461C62.3825 31.1236 62.2421 29.9721 62.3198 28.6915C62.4 27.6467 62.6031 26.6007 62.9314 25.5547C63.2623 24.5099 63.7059 23.5432 64.2649 22.656C63.914 22.1038 63.6132 21.512 63.3625 20.8791C63.1144 20.2438 62.9765 19.6569 62.9465 19.1171C62.9289 18.9459 63.0079 18.8317 63.1821 18.7746C63.3588 18.7188 63.548 18.7151 63.7485 18.7647C63.9491 18.8118 64.0568 18.9223 64.0744 19.0972C64.1045 19.4447 64.2022 19.8405 64.3702 20.2835C64.5406 20.7277 64.7524 21.1707 65.0068 21.6137C65.7751 20.6781 66.6423 19.9249 67.6086 19.3553C68.5773 18.787 69.694 18.5413 70.9573 18.6208ZM70.6214 20.1147C69.6288 20.0527 68.7728 20.2934 68.0547 20.8394C67.3354 21.3854 66.6962 22.0877 66.1347 22.9439C66.5984 23.3385 67.1073 23.6115 67.6587 23.7629C68.2101 23.9118 68.744 23.9552 69.2629 23.8919C69.7842 23.8299 70.2479 23.6785 70.6565 23.4402C71.0638 23.202 71.3558 22.9017 71.5338 22.5369C71.8847 21.9388 71.9674 21.3941 71.7844 20.9039C71.6002 20.4113 71.2129 20.1482 70.6214 20.1147Z" fill="#860194"/>
<path d="M73.7663 31.0193C73.7325 31.0987 73.6435 31.1186 73.5007 31.0789C73.3578 31.0392 73.23 30.9771 73.1197 30.8903C73.0069 30.8009 72.973 30.7166 73.0194 30.6371C73.3578 29.9261 73.6322 29.2896 73.8466 28.7262C74.0634 28.1641 74.2589 27.607 74.4331 27.0536C74.6098 26.4976 74.7865 25.8797 74.9645 25.1972C74.5634 24.6612 74.3742 24.1921 74.398 23.7876C74.4243 23.3843 74.5609 23.0803 74.809 22.8743C75.0559 22.6659 75.3229 22.579 75.6111 22.6113C75.8981 22.6411 76.125 22.8123 76.2929 23.1225C76.4633 23.4302 76.4684 23.9005 76.3079 24.5321C76.6112 24.8672 76.9509 25.2158 77.3256 25.5794C77.7028 25.9442 78.0424 26.3078 78.3432 26.6714C78.6465 27.0362 78.8508 27.3935 78.9548 27.7435C79.0613 28.0909 78.9861 28.4222 78.7292 28.7362C78.2342 29.3553 77.7868 30.0055 77.3857 30.6868C76.9847 31.3655 76.7842 32.0306 76.7842 32.6821C76.7842 33.0593 76.8719 33.372 77.0499 33.6202C77.2266 33.8659 77.5073 33.9875 77.892 33.9875C78.5137 34.0048 79.2355 33.6772 80.0577 33.0047C80.8823 32.3297 81.6142 31.2253 82.2534 29.6891C82.3035 29.6097 82.395 29.5899 82.5291 29.6296C82.6657 29.6693 82.7898 29.7412 82.9 29.843C83.0128 29.946 83.0467 30.0453 83.0003 30.1408C82.311 31.7229 81.4939 33.0022 80.5489 33.9775C79.6065 34.9504 78.5112 35.4194 77.2654 35.3871C76.4195 35.3536 75.7878 35.0931 75.3705 34.6029C74.9557 34.114 74.7489 33.511 74.7489 32.7962C74.7313 32.0393 74.9356 31.2762 75.3605 30.5081C75.7841 29.7412 76.244 28.9992 76.7391 28.2845C76.9458 28.0003 76.9897 27.7124 76.8694 27.4208C76.7491 27.1268 76.5649 26.8451 76.318 26.5771C76.0698 26.3066 75.8518 26.0596 75.6613 25.8375C75.4507 26.6155 75.2051 27.4159 74.9243 28.2398C74.6461 29.0637 74.2601 29.9907 73.7663 31.0193Z" fill="#860194"/>
<path d="M87.7971 25.0781C88.6292 25.0483 89.2884 25.196 89.7772 25.5198C90.2647 25.8449 90.6156 26.2842 90.8299 26.8401C91.0468 27.3935 91.1382 28.0102 91.1057 28.6915C91.0756 29.3702 90.9402 30.0701 90.6996 30.791C90.459 31.5132 90.1457 32.1894 89.7622 32.821C90.1795 32.8545 90.6044 32.8049 91.0355 32.6721C91.4666 32.5369 91.8977 32.2391 92.3288 31.7787C92.76 31.3196 93.161 30.6222 93.532 29.6891C93.5783 29.6097 93.6686 29.5898 93.8027 29.6296C93.9393 29.6693 94.0633 29.7375 94.1736 29.8331C94.2864 29.9261 94.3203 30.0291 94.2739 30.1408C93.7789 31.296 93.2337 32.151 92.6396 32.7069C92.0481 33.2603 91.444 33.5928 90.8299 33.7045C90.2146 33.8137 89.6118 33.7976 89.0202 33.6549C88.5252 34.1909 87.9575 34.6153 87.3158 34.9255C86.6767 35.2333 85.9648 35.3871 85.1803 35.3871C84.5085 35.3871 83.8919 35.2407 83.3305 34.9503C82.7715 34.6563 82.358 34.1736 82.0873 33.501C81.8165 32.826 81.7852 31.9115 81.992 30.7563C82.1825 29.6941 82.556 28.7399 83.1149 27.8924C83.6764 27.0461 84.3644 26.3735 85.1803 25.8772C85.9949 25.3784 86.8672 25.1116 87.7971 25.0781ZM87.6066 26.4827C87.0276 26.5125 86.4862 26.7582 85.9824 27.2173C85.4811 27.6777 85.0575 28.2373 84.7141 28.895C84.3694 29.5501 84.1426 30.1941 84.0323 30.8257C83.9521 31.332 83.927 31.8321 83.9571 32.3247C83.9897 32.8148 84.125 33.2181 84.3632 33.5358C84.6038 33.8534 84.981 34.0123 85.4961 34.0123C85.8633 34.0123 86.2255 33.913 86.5839 33.7145C86.9449 33.5159 87.2682 33.2578 87.5564 32.9402C87.396 32.7019 87.3434 32.4724 87.401 32.2502C87.4574 32.0294 87.5727 31.8606 87.7469 31.744C87.9237 31.6249 88.1079 31.605 88.2984 31.6844C88.5716 31.0987 88.7871 30.4969 88.9451 29.8777C89.1055 29.2598 89.1769 28.6902 89.1606 28.1703C89.1468 27.6479 89.0165 27.2273 88.7696 26.9096C88.5215 26.5919 88.1342 26.4505 87.6066 26.4827Z" fill="#860194"/>
<path d="M99.0009 25.1029C99.7491 25.1203 100.327 25.2642 100.735 25.5347C101.143 25.8027 101.407 26.1427 101.527 26.5522C101.648 26.9629 101.63 27.3861 101.477 27.8229C101.327 28.2596 101.052 28.6443 100.655 28.9744C100.511 29.1009 100.294 29.1679 100.003 29.1779C99.7152 29.1853 99.4596 29.1456 99.2365 29.0588C99.0122 28.9731 98.9257 28.8652 98.9758 28.7361C99.229 28.4358 99.4245 28.1194 99.5623 27.7881C99.6989 27.4543 99.7278 27.1615 99.6476 26.9096C99.5673 26.6552 99.3267 26.5125 98.9257 26.4827C98.3843 26.4207 97.8491 26.6068 97.3215 27.0436C96.7926 27.4779 96.3402 28.0549 95.963 28.7758C95.5883 29.4943 95.3614 30.2649 95.2812 31.0888C95.2173 31.8966 95.384 32.5704 95.7825 33.1089C96.1836 33.645 96.8002 33.9465 97.6323 34.0123C98.7176 34.0892 99.7842 33.7715 100.831 33.0593C101.88 32.3483 102.723 31.2253 103.362 29.6891C103.395 29.5936 103.479 29.57 103.613 29.6196C103.749 29.6668 103.874 29.7412 103.984 29.843C104.097 29.946 104.13 30.0452 104.084 30.1408C103.459 31.6435 102.747 32.7751 101.949 33.5358C101.149 34.2976 100.322 34.8052 99.4671 35.0595C98.6111 35.3102 97.7752 35.4194 96.9606 35.3871C96.1284 35.34 95.4228 35.1079 94.8451 34.6873C94.2698 34.2679 93.8475 33.7293 93.5768 33.0742C93.3061 32.4165 93.1946 31.7229 93.2409 30.9945C93.2911 30.2835 93.4715 29.5749 93.7823 28.8701C94.0931 28.1653 94.5067 27.5288 95.0256 26.9592C95.5469 26.3872 96.1435 25.9306 96.8152 25.5893C97.4869 25.2493 98.2151 25.0868 99.0009 25.1029Z" fill="#860194"/>
<path d="M106.771 18.9781C106.851 18.8826 106.994 18.8268 107.202 18.8094C107.409 18.7932 107.625 18.8131 107.849 18.8689C108.072 18.926 108.26 19.0054 108.411 19.1072C108.563 19.2102 108.617 19.333 108.571 19.4745C108.36 19.9348 108.135 20.5056 107.894 21.1869C107.656 21.8656 107.414 22.6014 107.167 23.3956C106.919 24.1873 106.679 24.9777 106.445 25.7681C106.215 26.5598 105.996 27.3043 105.789 28.0016C106.076 27.6046 106.43 27.1814 106.851 26.731C107.275 26.2818 107.74 25.8947 108.245 25.5696C108.749 25.242 109.265 25.0782 109.794 25.0782C110.719 25.0658 111.323 25.3834 111.604 26.0312C111.885 26.6801 111.887 27.4954 111.614 28.4781C111.245 29.8381 110.947 30.9301 110.717 31.754C110.486 32.5779 110.366 33.1686 110.356 33.5259C110.348 33.8808 110.488 34.057 110.777 34.057C111.128 34.0409 111.521 33.8312 111.96 33.4267C112.401 33.0234 112.828 32.4886 113.243 31.8235C113.66 31.1584 114.021 30.4474 114.326 29.6892C114.358 29.5937 114.442 29.5651 114.577 29.6048C114.713 29.6445 114.837 29.7165 114.947 29.8183C115.06 29.9213 115.094 30.0292 115.048 30.1409C114.807 30.7104 114.518 31.2961 114.18 31.8979C113.846 32.4973 113.475 33.0631 113.068 33.5954C112.659 34.1253 112.22 34.5571 111.749 34.8909C111.278 35.221 110.778 35.3947 110.25 35.412C109.368 35.4282 108.814 35.1999 108.591 34.7271C108.367 34.2506 108.312 33.6401 108.426 32.8956C108.472 32.5953 108.567 32.1746 108.711 31.6349C108.854 31.0963 109.01 30.5305 109.178 29.9374C109.348 29.3418 109.481 28.8305 109.579 28.4037C109.659 28.153 109.71 27.8875 109.734 27.6095C109.757 27.3316 109.72 27.0983 109.624 26.9097C109.53 26.7186 109.314 26.6305 108.977 26.6466C108.642 26.6466 108.258 26.803 107.824 27.1132C107.393 27.4209 106.964 27.8168 106.541 28.2995C106.12 28.7834 105.74 29.2921 105.403 29.8282C105.212 30.5429 105.052 31.1509 104.921 31.6498C104.794 32.1461 104.673 32.6362 104.561 33.1189C104.45 33.6029 104.322 34.1848 104.18 34.8661C104.146 34.9753 104.017 35.0671 103.794 35.1391C103.569 35.2085 103.319 35.2458 103.042 35.2532C102.761 35.2631 102.529 35.2247 102.345 35.1391C102.162 35.0534 102.093 34.9058 102.139 34.6973C102.444 33.3051 102.785 31.8719 103.162 30.399C103.535 28.9273 103.93 27.4855 104.345 26.0758C104.762 24.6662 105.175 23.3534 105.583 22.1349C105.99 20.9176 106.387 19.8653 106.771 18.9781Z" fill="#860194"/>
<path d="M119.868 21.0429C120.075 20.9175 120.319 20.8542 120.6 20.8542C120.881 20.8542 121.092 20.9175 121.237 21.0429C121.379 21.1521 121.567 21.3345 121.798 21.5888C122.029 21.8445 122.255 22.1026 122.48 22.3631C122.703 22.6212 122.881 22.8297 123.011 22.9885C123.154 23.1312 123.134 23.259 122.951 23.3707C122.767 23.4799 122.542 23.5481 122.279 23.5742C122.015 23.5978 121.819 23.5382 121.693 23.3955L120.444 21.9909L118.575 23.5146C118.397 23.6573 118.176 23.7082 117.913 23.6685C117.648 23.6288 117.452 23.5295 117.321 23.3707C117.194 23.2119 117.227 23.0456 117.422 22.8694C117.612 22.6982 117.863 22.4922 118.174 22.2539C118.487 22.0157 118.8 21.7824 119.111 21.5541C119.422 21.3233 119.674 21.1521 119.868 21.0429ZM119.963 25.1278C120.778 25.1613 121.398 25.3834 121.823 25.7929C122.247 26.2036 122.486 26.6987 122.54 27.2769C122.596 27.8564 122.481 28.4222 122.194 28.9744C121.729 29.8951 120.957 30.5416 119.878 30.9151C118.798 31.2861 117.547 31.2725 116.123 30.8754C115.995 31.6993 116.125 32.3967 116.509 32.965C116.893 33.5346 117.502 33.8832 118.334 34.0123C118.926 34.0892 119.597 34.0123 120.349 33.784C121.101 33.5557 121.836 33.1139 122.555 32.4587C123.273 31.8011 123.88 30.8779 124.375 29.6892C124.407 29.5936 124.491 29.5651 124.625 29.6048C124.762 29.6445 124.886 29.7164 124.996 29.8182C125.109 29.9212 125.143 30.0291 125.097 30.1408C124.602 31.342 124.045 32.3036 123.427 33.0246C122.812 33.7468 122.18 34.2803 121.532 34.6278C120.887 34.9752 120.26 35.1961 119.652 35.2929C119.043 35.3884 118.499 35.4281 118.018 35.412C116.902 35.3487 116.019 35.0447 115.371 34.4987C114.722 33.9527 114.315 33.2603 114.148 32.419C113.978 31.579 114.022 30.7004 114.278 29.7835C114.565 28.7846 115 27.9296 115.582 27.2174C116.166 26.5064 116.843 25.9691 117.612 25.6042C118.38 25.2407 119.164 25.0818 119.963 25.1278ZM119.652 26.4828C119.234 26.4666 118.798 26.6143 118.344 26.9245C117.889 27.2323 117.482 27.6442 117.121 28.1604C116.76 28.6741 116.492 29.2375 116.319 29.8529C117.308 30.0453 118.154 30.0304 118.855 29.8083C119.56 29.5874 120.065 29.1829 120.369 28.5972C120.546 28.2795 120.65 27.9594 120.68 27.6343C120.713 27.3104 120.653 27.0374 120.5 26.8153C120.349 26.5945 120.066 26.4828 119.652 26.4828Z" fill="#860194"/>
<path d="M127.423 35.4119C126.912 35.3946 126.447 35.2531 126.03 34.9851C125.615 34.7146 125.315 34.3299 125.132 33.8336C124.948 33.3348 124.937 32.7441 125.097 32.0616C125.16 31.873 125.288 31.7477 125.478 31.6844C125.671 31.6186 125.855 31.605 126.03 31.6447C126.206 31.6844 126.303 31.7613 126.32 31.873C126.16 32.5555 126.215 33.0829 126.486 33.4564C126.759 33.8274 127.12 34.0123 127.569 34.0123C127.872 33.9961 128.156 33.908 128.421 33.7492C128.684 33.5904 128.872 33.4092 128.982 33.2032C128.774 33.0283 128.666 32.8148 128.656 32.5629C128.649 32.3086 128.713 32.0865 128.847 31.8978C128.983 31.7067 129.158 31.6273 129.368 31.6596C129.398 31.2464 129.344 30.8034 129.208 30.3294C129.074 29.8529 128.91 29.359 128.717 28.8453C128.526 28.3291 128.353 27.803 128.2 27.267C128.05 26.7284 127.975 26.18 127.975 25.6241C127.319 26.2594 126.739 27.0262 126.235 27.9221C125.73 28.8156 125.215 29.8479 124.691 31.0193C124.657 31.0987 124.568 31.1223 124.425 31.0888C124.283 31.0565 124.158 30.9933 124.054 30.9002C123.952 30.8046 123.914 30.7165 123.944 30.6371C124.506 29.3702 125.088 28.215 125.694 27.1727C126.302 26.1279 126.967 25.2952 127.689 24.6761C128.04 24.3584 128.378 24.1685 128.706 24.1053C129.034 24.0432 129.309 24.068 129.534 24.1797C129.757 24.2889 129.89 24.4552 129.93 24.6761C129.97 24.8982 129.877 25.1426 129.654 25.4106C129.717 26.2048 129.852 26.9232 130.06 27.5648C130.271 28.2038 130.487 28.8093 130.712 29.3814C130.935 29.9509 131.09 30.5168 131.178 31.0789C131.264 31.6385 131.221 32.2354 131.048 32.8707C131.622 32.8707 132.208 32.6461 132.807 32.1956C133.409 31.7427 133.956 30.9076 134.451 29.6891C134.484 29.6097 134.568 29.5898 134.702 29.6296C134.839 29.6693 134.963 29.7375 135.073 29.8331C135.186 29.9261 135.22 30.0291 135.173 30.1408C134.755 31.1372 134.291 31.9078 133.78 32.4537C133.268 32.9997 132.743 33.372 132.206 33.5705C131.67 33.7691 131.148 33.8522 130.637 33.8187C130.302 34.3423 129.842 34.7419 129.258 35.0198C128.673 35.2978 128.061 35.4281 127.423 35.4119Z" fill="#860194"/>
<path d="M68.4155 38.2355C68.4619 38.1437 68.5885 38.0891 68.7965 38.0717C69.0071 38.0556 69.2276 38.0717 69.4582 38.1213C69.6888 38.1685 69.8843 38.2429 70.0447 38.3447C70.2052 38.4477 70.2616 38.5705 70.2152 38.712C70.0209 39.1885 69.7891 39.8027 69.5184 40.5534C69.2477 41.3054 68.9632 42.1318 68.6662 43.0351C68.3717 43.9385 68.0847 44.8567 67.8039 45.7898C67.5232 46.723 67.2788 47.6263 67.072 48.4999C66.864 49.3709 66.7123 50.1552 66.6158 50.8525C66.5181 51.5474 66.5056 52.0971 66.5757 52.5004C66.6484 52.9049 66.8289 53.1059 67.1171 53.1059C67.4706 53.1059 67.8553 52.9049 68.2701 52.5004C68.6875 52.0971 69.0923 51.5747 69.4833 50.9319C69.8743 50.2904 70.2052 49.6216 70.4759 48.9267C70.5085 48.8312 70.5924 48.8026 70.7265 48.8423C70.8631 48.882 70.9872 48.954 71.0975 49.0558C71.2103 49.1588 71.2441 49.258 71.1977 49.3536C70.8594 50.1452 70.447 50.9319 69.9595 51.7162C69.4745 52.5004 68.9319 53.1506 68.3303 53.6668C67.7312 54.1805 67.0795 54.4436 66.3752 54.4609C65.7661 54.4733 65.2987 54.2128 64.9716 53.6767C64.6432 53.1382 64.543 52.4334 64.6708 51.5623C64.4327 52.0686 64.1306 52.555 63.7634 53.0215C63.395 53.4881 62.9739 53.8728 62.5002 54.1731C62.0289 54.4733 61.4976 54.6322 60.906 54.6496C60.124 54.6657 59.5287 54.4374 59.1214 53.9646C58.7141 53.4881 58.4822 52.8664 58.4246 52.0983C58.3682 51.3278 58.4772 50.5076 58.7504 49.6365C59.0211 48.7666 59.4284 47.944 59.9736 47.1697C60.5777 46.3296 61.2645 45.7079 62.034 45.3034C62.8022 44.9001 63.5541 44.6631 64.2898 44.5936C65.0242 44.5217 65.6396 44.5639 66.1346 44.7227C66.2474 44.343 66.4003 43.864 66.5908 43.2883C66.7838 42.71 66.9931 42.0995 67.2174 41.4568C67.4405 40.8152 67.656 40.2097 67.8641 39.6401C68.0709 39.0681 68.2551 38.6003 68.4155 38.2355ZM65.7536 46.0281C65.0643 45.8233 64.3074 45.899 63.4827 46.2564C62.6606 46.6113 61.9537 47.2938 61.3622 48.3063C61.074 48.8126 60.8421 49.392 60.6654 50.0435C60.4912 50.6925 60.411 51.2893 60.4248 51.8353C60.4411 52.3813 60.5927 52.7734 60.881 53.0116C61.1842 53.2796 61.5602 53.3119 62.0089 53.1059C62.4563 52.9012 62.9162 52.4942 63.3875 51.8849C63.8612 51.2732 64.2823 50.5088 64.6507 49.5918C64.8575 49.0855 65.0568 48.5123 65.2473 47.8695C65.4403 47.228 65.6095 46.6138 65.7536 46.0281Z" fill="#860194"/>
<path d="M75.6595 44.415C76.1533 44.3194 76.6885 44.2909 77.2637 44.3306C77.8415 44.3703 78.4092 44.4981 78.9681 44.7128C79.5296 44.925 80.0171 45.2439 80.4319 45.6707C80.5121 45.7675 80.4921 45.9139 80.3718 46.1125C80.2515 46.3085 80.0936 46.4698 79.9006 46.5989C79.7101 46.7254 79.5597 46.7478 79.4494 46.6684C78.9543 46.2887 78.4029 46.0206 77.7951 45.8643C77.186 45.7055 76.6271 45.6732 76.1157 45.765C75.444 45.8779 74.8036 46.2068 74.1957 46.7527C73.5867 47.2987 73.0753 47.9675 72.6618 48.758C72.3735 49.2977 72.158 49.8524 72.0151 50.4207C71.871 50.9903 71.8171 51.5052 71.8547 51.9643C71.8948 52.4247 72.0201 52.7659 72.2306 52.9868C72.5339 53.2883 72.9137 53.3243 73.3686 53.096C73.8223 52.8652 74.2973 52.4408 74.7923 51.8254C75.2898 51.2074 75.746 50.4704 76.1608 49.6166C76.5782 48.7604 76.899 47.8571 77.1233 46.9066C77.2198 46.718 77.4066 46.6324 77.6848 46.6485C77.9655 46.6622 78.2375 46.7279 78.5019 46.847C78.7651 46.9662 78.8892 47.1051 78.8729 47.264C78.7751 47.6114 78.6586 48.0271 78.522 48.5098C78.3879 48.9937 78.2525 49.4963 78.1159 50.0187C77.9818 50.5423 77.8753 51.025 77.7951 51.468C77.6973 52.004 77.681 52.416 77.745 52.7039C77.8076 52.9893 77.9831 53.1307 78.2713 53.1307C78.6084 53.1307 78.9957 52.9459 79.4343 52.5748C79.8755 52.2013 80.3141 51.6988 80.7528 51.066C81.1939 50.4306 81.5661 49.7246 81.8707 48.9466C81.9033 48.8548 81.9922 48.8275 82.1364 48.8672C82.2792 48.9069 82.4071 48.9751 82.5173 49.0707C82.6301 49.1637 82.664 49.2667 82.6176 49.3784C82.2329 50.216 81.7829 51.0263 81.2691 51.8105C80.7578 52.5947 80.1888 53.2337 79.5647 53.7264C78.9431 54.2165 78.2563 54.4609 77.5043 54.4609C76.9629 54.4609 76.5431 54.2053 76.2461 53.6916C75.9516 53.1754 75.8914 52.4743 76.0656 51.5871C75.7611 52.0773 75.434 52.5525 75.083 53.0116C74.7321 53.4683 74.3323 53.848 73.8849 54.1483C73.4363 54.4485 72.9087 54.6074 72.3008 54.6247C71.3709 54.6409 70.6841 54.2897 70.2405 53.5675C69.7931 52.8466 69.6728 51.8849 69.8795 50.6838C70.0537 49.7345 70.4184 48.8076 70.9774 47.9043C71.5388 47.0009 72.2269 46.2341 73.0428 45.6012C73.8574 44.9659 74.7296 44.5713 75.6595 44.415Z" fill="#860194"/>
<path d="M97.6055 38.3545C97.7483 38.0865 97.9839 37.9376 98.3123 37.9078C98.6431 37.8756 98.9464 37.9153 99.2247 38.0269C99.5054 38.1361 99.637 38.2937 99.6207 38.4985C99.4126 39.1313 99.2171 39.7641 99.0342 40.3995C98.8499 41.0323 98.6544 41.7086 98.4476 42.4295C98.2396 43.1517 98.0077 43.9632 97.7508 44.8665C97.4964 45.7674 97.2007 46.8197 96.8635 48.0233C96.4788 49.4006 96.0828 50.5881 95.6754 51.587C95.2669 52.5834 94.7505 53.3428 94.1264 53.8652C93.5048 54.3889 92.6576 54.6569 91.5848 54.6743C90.7226 54.6743 90.0158 54.472 89.4643 54.0687C88.9129 53.6655 88.5394 53.1542 88.3464 52.535C88.1559 51.9171 88.1672 51.2718 88.3815 50.5993C88.5983 49.928 89.0345 49.3311 89.6899 48.8075C89.8328 48.6958 90.0007 48.6785 90.1912 48.7579C90.3842 48.8373 90.5496 48.9539 90.6875 49.1053C90.8241 49.2542 90.868 49.4081 90.8178 49.5669C90.403 50.1203 90.1712 50.6775 90.121 51.2396C90.0734 51.8029 90.2025 52.2707 90.507 52.6442C90.8103 53.0153 91.2665 53.2001 91.8756 53.2001C92.4333 53.184 92.8882 52.942 93.2391 52.4755C93.5925 52.0089 93.8933 51.4009 94.1415 50.6489C94.3884 49.8945 94.6327 49.0991 94.8734 48.2615C95.4812 46.0454 95.9612 44.2709 96.3121 42.9407C96.663 41.6105 96.935 40.6762 97.1292 40.1364C96.5502 40.7556 95.9461 41.2519 95.3145 41.6254C94.6829 41.9964 94.0788 42.3129 93.5048 42.5734C92.9296 42.8353 92.4383 43.1083 92.031 43.3924C91.6224 43.6778 91.3705 44.0501 91.274 44.5092C91.1763 44.9038 91.18 45.2673 91.284 45.6011C91.3906 45.9324 91.7152 46.1372 92.2566 46.2166C92.3994 46.2662 92.4834 46.3854 92.5072 46.574C92.5335 46.7626 92.5022 46.945 92.412 47.1199C92.3242 47.2961 92.1776 47.383 91.9708 47.383C91.2189 47.3507 90.6273 47.177 90.1962 46.8618C89.7651 46.5442 89.4806 46.1521 89.344 45.6855C89.2062 45.2165 89.1861 44.7598 89.2839 44.3156C89.4267 43.684 89.7112 43.1777 90.1361 42.7968C90.5597 42.4171 91.0748 42.0957 91.6801 41.8339C92.2879 41.5733 92.9396 41.3078 93.6351 41.0397C94.3332 40.7717 95.025 40.433 95.7105 40.0222C96.3986 39.609 97.0302 39.0531 97.6055 38.3545Z" fill="#860194"/>
<path d="M108.354 38.2355C108.401 38.1437 108.527 38.0891 108.735 38.0717C108.946 38.0556 109.167 38.0717 109.397 38.1213C109.628 38.1685 109.823 38.2429 109.984 38.3447C110.144 38.4477 110.201 38.5705 110.154 38.712C109.96 39.1885 109.728 39.8027 109.457 40.5534C109.187 41.3054 108.902 42.1318 108.605 43.0351C108.311 43.9385 108.024 44.8567 107.743 45.7898C107.462 46.723 107.218 47.6263 107.011 48.4999C106.803 49.3709 106.651 50.1552 106.555 50.8525C106.457 51.5474 106.445 52.0971 106.515 52.5004C106.587 52.9049 106.768 53.1059 107.056 53.1059C107.41 53.1059 107.794 52.9049 108.209 52.5004C108.626 52.0971 109.031 51.5747 109.422 50.9319C109.813 50.2904 110.144 49.6216 110.415 48.9267C110.447 48.8312 110.531 48.8026 110.665 48.8423C110.802 48.882 110.926 48.954 111.036 49.0558C111.149 49.1588 111.183 49.258 111.137 49.3536C110.798 50.1452 110.386 50.9319 109.898 51.7162C109.413 52.5004 108.871 53.1506 108.269 53.6668C107.67 54.1805 107.019 54.4436 106.314 54.4609C105.705 54.4733 105.238 54.2128 104.911 53.6767C104.582 53.1382 104.482 52.4334 104.61 51.5623C104.372 52.0686 104.07 52.555 103.702 53.0215C103.334 53.4881 102.913 53.8728 102.439 54.1731C101.968 54.4733 101.437 54.6322 100.845 54.6496C100.063 54.6657 99.4677 54.4374 99.0604 53.9646C98.653 53.4881 98.4212 52.8664 98.3635 52.0983C98.3072 51.3278 98.4162 50.5076 98.6894 49.6365C98.9601 48.7666 99.3674 47.944 99.9126 47.1697C100.517 46.3296 101.203 45.7079 101.973 45.3034C102.741 44.9001 103.493 44.6631 104.229 44.5936C104.963 44.5217 105.579 44.5639 106.074 44.7227C106.186 44.343 106.339 43.864 106.53 43.2883C106.723 42.71 106.932 42.0995 107.156 41.4568C107.379 40.8152 107.595 40.2097 107.803 39.6401C108.01 39.0681 108.194 38.6003 108.354 38.2355ZM105.693 46.0281C105.003 45.8233 104.246 45.899 103.422 46.2564C102.6 46.6113 101.893 47.2938 101.301 48.3063C101.013 48.8126 100.781 49.392 100.604 50.0435C100.43 50.6925 100.35 51.2893 100.364 51.8353C100.38 52.3813 100.532 52.7734 100.82 53.0116C101.123 53.2796 101.499 53.3119 101.948 53.1059C102.395 52.9012 102.855 52.4942 103.326 51.8849C103.8 51.2732 104.221 50.5088 104.59 49.5918C104.796 49.0855 104.996 48.5123 105.186 47.8695C105.379 47.228 105.548 46.6138 105.693 46.0281Z" fill="#860194"/>
<path d="M115.598 44.415C116.092 44.3194 116.627 44.2909 117.202 44.3306C117.78 44.3703 118.348 44.4981 118.907 44.7128C119.468 44.925 119.956 45.2439 120.371 45.6707C120.451 45.7675 120.431 45.9139 120.31 46.1125C120.19 46.3085 120.032 46.4698 119.839 46.5989C119.649 46.7254 119.498 46.7478 119.388 46.6684C118.893 46.2887 118.342 46.0206 117.734 45.8643C117.125 45.7055 116.566 45.6732 116.054 45.765C115.383 45.8779 114.742 46.2068 114.134 46.7527C113.525 47.2987 113.014 47.9675 112.6 48.758C112.312 49.2977 112.097 49.8524 111.954 50.4207C111.81 50.9903 111.756 51.5052 111.793 51.9643C111.833 52.4247 111.959 52.7659 112.169 52.9868C112.473 53.2883 112.852 53.3243 113.307 53.096C113.761 52.8652 114.236 52.4408 114.731 51.8254C115.229 51.2074 115.685 50.4704 116.1 49.6166C116.517 48.7604 116.838 47.8571 117.062 46.9066C117.159 46.718 117.345 46.6324 117.624 46.6485C117.904 46.6622 118.176 46.7279 118.441 46.847C118.704 46.9662 118.828 47.1051 118.812 47.264C118.714 47.6114 118.597 48.0271 118.461 48.5098C118.327 48.9937 118.191 49.4963 118.055 50.0187C117.921 50.5423 117.814 51.025 117.734 51.468C117.636 52.004 117.62 52.416 117.684 52.7039C117.746 52.9893 117.922 53.1307 118.21 53.1307C118.547 53.1307 118.934 52.9459 119.373 52.5748C119.814 52.2013 120.253 51.6988 120.691 51.066C121.133 50.4306 121.505 49.7246 121.809 48.9466C121.842 48.8548 121.931 48.8275 122.075 48.8672C122.218 48.9069 122.346 48.9751 122.456 49.0707C122.569 49.1637 122.603 49.2667 122.556 49.3784C122.172 50.216 121.722 51.0263 121.208 51.8105C120.696 52.5947 120.128 53.2337 119.503 53.7264C118.882 54.2165 118.195 54.4609 117.443 54.4609C116.902 54.4609 116.482 54.2053 116.185 53.6916C115.89 53.1754 115.83 52.4743 116.004 51.5871C115.7 52.0773 115.373 52.5525 115.022 53.0116C114.671 53.4683 114.271 53.848 113.824 54.1483C113.375 54.4485 112.847 54.6074 112.24 54.6247C111.31 54.6409 110.623 54.2897 110.179 53.5675C109.732 52.8466 109.611 51.8849 109.818 50.6838C109.992 49.7345 110.357 48.8076 110.916 47.9043C111.478 47.0009 112.166 46.2341 112.981 45.6012C113.796 44.9659 114.668 44.5713 115.598 44.415Z" fill="#860194"/>
<path d="M32.2689 30.7584C32.2013 28.3027 31.126 25.9265 29.4366 24.1545C27.3875 22.0066 24.406 21.5252 21.5624 21.7907C21.4521 21.8006 21.3757 21.8565 21.3305 21.9284C18.3215 22.0873 16.1283 23.3951 14.1043 25.615C12.1567 27.7518 10.9411 30.535 11.0865 33.4299C11.3935 39.592 17.7914 42.6098 23.3182 42.0043C29.0493 41.3776 32.4206 36.2578 32.2689 30.7584Z" fill="#C514DB"/>
<path d="M29.166 24.2972C29.1071 24.023 28.7399 24.121 28.7111 24.3568C28.5757 25.4934 28.2787 26.5506 27.8551 27.5433C26.4389 25.0976 22.619 23.4733 19.8431 24.2228C19.6927 24.2637 19.719 24.5082 19.8807 24.497C22.723 24.3071 25.87 25.5269 27.6684 27.7207C27.6947 27.753 27.7273 27.7642 27.7599 27.7617C26.766 29.9667 25.1393 31.8478 23.2444 33.5366C22.1052 34.5517 20.8219 35.383 19.4947 36.1362C18.6713 33.7463 18.1913 30.7013 18.5836 27.9019C18.6011 27.9193 18.6237 27.9329 18.6562 27.9379C19.8995 28.1066 21.0286 28.3399 22.1578 28.9082C23.1692 29.4182 23.9663 30.2384 24.9601 30.772C25.0654 30.8278 25.2108 30.7087 25.1343 30.5983C23.7933 28.6762 21.0299 27.4366 18.6963 27.6426C18.6663 27.645 18.6399 27.6599 18.6174 27.6773C18.9746 25.4127 19.917 23.3281 21.7305 21.9048C21.8232 21.8316 21.7443 21.6765 21.6365 21.6802C19.8368 21.7361 18.739 25.3569 18.3768 26.6772C17.5434 29.7185 17.5634 33.5168 19.2904 36.2516C19.0823 36.3683 18.8731 36.4837 18.6638 36.5966C16.8741 37.5645 15.1434 37.6128 13.2033 37.9715C13.1119 37.9888 13.1219 38.1216 13.2033 38.1439C16.8077 39.1391 21.1114 36.1213 23.6743 33.9622C26.0981 31.921 29.9105 27.7791 29.166 24.2972Z" fill="#860194"/>
<path d="M28.3978 30.1988C28.4642 30.0548 28.275 29.9419 28.181 30.0747C25.2434 34.2564 20.6289 38.1775 15.3502 38.7669C15.2211 38.7805 15.2186 38.9555 15.3502 38.9666C17.6274 39.1577 20.0374 37.7866 21.8796 36.6438C24.4112 35.0728 27.1383 32.9535 28.3978 30.1988Z" fill="#860194"/>
<path d="M24.287 35.7007C22.7229 36.9949 21.0097 37.701 19.3417 38.8066C19.2376 38.876 19.3016 39.0684 19.4319 39.0187C21.3155 38.2879 22.9786 37.2046 24.5627 35.9749C26.8837 34.1744 29.2323 31.9943 30.3615 29.2346C30.4079 29.1192 30.2287 29.0584 30.166 29.1539C28.4954 31.6878 26.6306 33.7625 24.287 35.7007Z" fill="#860194"/>
<path d="M16.3515 40.3824C16.265 40.3948 16.2964 40.5152 16.3703 40.5226C19.7115 40.8378 23.1466 38.7991 25.6481 36.8336C26.3575 36.2764 27.0919 35.6324 27.7937 34.9227C27.8401 35.8185 27.9867 36.6648 27.8564 37.5905C27.716 38.5733 27.2373 39.4667 27.0593 40.437C27.0255 40.6194 27.2824 40.7572 27.3801 40.571C28.3138 38.7792 28.7086 36.5556 28.102 34.6037C29.0695 33.585 29.9568 32.4434 30.6135 31.2323C31.3755 33.1755 31.1361 34.8556 30.5697 36.7988C30.5095 37.0023 30.7777 37.083 30.8905 36.9328C32.1212 35.3123 31.6287 32.766 30.7915 31.0934C30.7752 31.0599 30.7464 31.045 30.715 31.0425C31.1625 30.1813 31.4921 29.2867 31.6462 28.3796C31.6775 28.1935 31.4319 28.1277 31.3642 28.3027C28.859 34.703 23.2645 39.4431 16.3515 40.3824Z" fill="#860194"/>
<path d="M16.4969 33.4647C16.5508 33.6905 16.9155 33.6434 16.9042 33.4101C16.7564 30.1764 17.1085 26.4526 18.9508 23.6495C19.0749 23.4609 18.7916 23.245 18.6375 23.41C17.6399 24.4784 17.2852 26.2777 16.8867 27.6376C16.3478 29.4766 16.0445 31.5848 16.4969 33.4647Z" fill="#860194"/>
<path d="M21.0323 26.8572C22.154 27.0681 23.0501 27.6761 24.0451 28.1836C24.1216 28.2233 24.2131 28.1216 24.1416 28.0608C23.2857 27.3287 22.2154 26.8026 21.0962 26.6276C20.9471 26.604 20.8794 26.8274 21.0323 26.8572Z" fill="#860194"/>
<path d="M26.7197 28.5819C25.6669 26.2714 22.3458 24.8929 19.922 25.3445C19.7553 25.3755 19.7929 25.6572 19.9621 25.6398C22.6892 25.3582 24.7195 26.944 26.5317 28.7259C26.6332 28.8264 26.7736 28.6998 26.7197 28.5819Z" fill="#860194"/>
<path d="M28.9943 37.8151C28.9969 37.9206 29.1498 37.9727 29.2024 37.871C29.6222 37.0756 29.4756 36.0717 29.2425 35.2428C29.2061 35.12 29.0319 35.1734 29.052 35.295C29.1886 36.1549 28.9756 36.9639 28.9943 37.8151Z" fill="#860194"/>
<path d="M29.4982 34.0256C29.5708 34.3159 29.6247 34.61 29.6861 34.9041C29.745 35.1932 29.7513 35.5071 29.8528 35.7839C29.8917 35.8893 30.037 35.8943 30.0734 35.7839C30.2651 35.2118 30.0295 34.4785 29.8578 33.9275C29.7864 33.7005 29.4392 33.7935 29.4982 34.0256Z" fill="#860194"/>
<path d="M19.3856 42.0377C20.7241 41.8516 22.0588 41.5935 23.4161 41.6257C25.207 41.6667 25.7121 42.611 26.3136 44.0975C26.37 44.2353 26.6244 44.2886 26.652 44.0975C26.9916 41.7325 24.5703 40.9979 22.6742 41.086C21.0312 41.1617 16.7074 42.812 15.9605 40.669C15.9329 40.5896 15.8176 40.6033 15.8139 40.6877C15.7349 42.5241 18.2038 42.2027 19.3856 42.0377Z" fill="#860194"/>
<path d="M16.5431 25.2787C15.6258 27.083 15.3149 29.0869 15.0956 31.0773C14.8863 32.9733 14.8863 35.2788 16.0306 36.9068C16.1534 37.0843 16.498 36.9775 16.4053 36.7517C14.9991 33.3121 15.2473 28.8226 16.8514 25.4574C16.9479 25.2539 16.6472 25.074 16.5431 25.2787Z" fill="#860194"/>
<path d="M13.8688 32.1568C14.0004 28.9678 15.0657 26.3384 16.7087 23.6408C16.819 23.4609 16.5696 23.2797 16.4204 23.4211C14.1408 25.5778 13.5317 29.1738 13.5655 32.1568C13.568 32.3516 13.8613 32.3504 13.8688 32.1568Z" fill="#860194"/>
<mask id="mask0_4_189" style="mask-type:luminance" maskUnits="userSpaceOnUse" x="16" y="34" width="39" height="21">
<path d="M16.7712 34.8706H54.2974V54.0406H16.7712V34.8706Z" fill="white"/>
</mask>
<g mask="url(#mask0_4_189)">
<path d="M54.0831 35.8546C52.8448 34.0156 51.2557 35.1932 49.0625 36.1263C43.2637 38.5944 37.7156 41.5737 32.2827 44.7739C28.157 47.2258 24.8171 49.0623 22.3745 50.4247C19.9332 51.7884 16.0155 53.5467 17.0168 53.9661C19.289 54.9191 33.2452 46.4763 36.7531 44.7056C40.2797 42.9597 50.4975 37.0917 51.95 36.8758C53.4639 36.6512 52.3473 38.3127 53.1732 38.1092C54.0668 37.9045 54.6332 36.6711 54.0831 35.8546Z" fill="#860194"/>
</g>
<path d="M38.3838 48.5783C35.604 48.2222 31.8117 47.7593 27.0594 47.0198C20.8119 46.0705 14.5406 45.3694 8.23049 45.2354C5.84304 45.1846 3.92556 44.6832 3.47439 46.8473C3.27262 47.809 4.2652 48.7409 5.1713 48.5994C6.01348 48.4815 4.34916 47.3561 5.83678 47.0024C7.26674 46.6624 18.9596 48.3078 22.8898 48.6168C26.8112 48.9555 42.9443 51.5985 44.6901 49.8713C45.4596 49.1106 41.1622 48.9357 38.3838 48.5783Z" fill="#C514DB"/>
</g>
<defs>
<clipPath id="clip0_4_189">
<rect x="3.09082" width="149.909" height="76" rx="20" fill="white"/>
</clipPath>
</defs>
</svg>
